<svg width="1200" height="620" viewBox="0 0 1200 620" fill="none" xmlns="http://www.w3.org/2000/svg">
  <rect width="1200" height="620" rx="36" fill="#070A08"/>
  <rect x="1" y="1" width="1198" height="618" rx="35" stroke="#F7C85B" stroke-opacity=".28" stroke-width="2"/>
  <circle cx="146" cy="118" r="98" fill="#F7C85B" fill-opacity=".16"/>
  <circle cx="1044" cy="486" r="152" fill="#B9FF66" fill-opacity=".08"/>
  <path d="M80 150H1120M80 260H1120M80 370H1120M80 480H1120M250 78V542M450 78V542M650 78V542M850 78V542M1050 78V542" stroke="#FFE7A0" stroke-opacity=".08" stroke-width="2"/>
  <rect x="86" y="76" width="372" height="468" rx="28" fill="#111912" stroke="#F7C85B" stroke-opacity=".28"/>
  <rect x="122" y="112" width="78" height="78" rx="39" fill="url(#gold)"/>
  <text x="161" y="161" text-anchor="middle" fill="#070A08" font-family="Arial, sans-serif" font-weight="900" font-size="24">N50</text>
  <text x="122" y="238" fill="#FFF7DF" font-family="Arial, sans-serif" font-weight="900" font-size="44">Live market</text>
  <text x="122" y="286" fill="#B8B2A2" font-family="Arial, sans-serif" font-weight="700" font-size="24">Chart reading lesson</text>
  <path d="M122 426C164 384 198 406 236 356C278 302 318 336 356 274C384 228 414 230 426 206" stroke="#F7C85B" stroke-width="12" stroke-linecap="round" stroke-linejoin="round"/>
  <path d="M122 472H426M122 386H426M122 300H426" stroke="#FFF7DF" stroke-opacity=".12" stroke-width="3"/>
  <rect x="514" y="76" width="600" height="468" rx="28" fill="#0D130F" stroke="#F7C85B" stroke-opacity=".22"/>
  <text x="560" y="142" fill="#F7C85B" font-family="Arial, sans-serif" font-weight="900" font-size="22" letter-spacing="5">TRADEONIX ACADEMY</text>
  <text x="560" y="208" fill="#FFF7DF" font-family="Arial, sans-serif" font-weight="900" font-size="54">Structured learning</text>
  <text x="560" y="260" fill="#B8B2A2" font-family="Arial, sans-serif" font-weight="700" font-size="25">Mentor guidance, risk control and practical market examples.</text>
  <g>
    <rect x="560" y="330" width="118" height="96" rx="20" fill="#171F19" stroke="#F7C85B" stroke-opacity=".32"/>
    <text x="619" y="376" text-anchor="middle" fill="#FFE7A0" font-family="Arial, sans-serif" font-weight="900" font-size="26">BTC</text>
    <text x="619" y="405" text-anchor="middle" fill="#B8B2A2" font-family="Arial, sans-serif" font-weight="800" font-size="15">Crypto</text>
  </g>
  <g>
    <rect x="708" y="330" width="118" height="96" rx="20" fill="#171F19" stroke="#F7C85B" stroke-opacity=".32"/>
    <text x="767" y="376" text-anchor="middle" fill="#FFE7A0" font-family="Arial, sans-serif" font-weight="900" font-size="26">XAU</text>
    <text x="767" y="405" text-anchor="middle" fill="#B8B2A2" font-family="Arial, sans-serif" font-weight="800" font-size="15">Gold</text>
  </g>
  <g>
    <rect x="856" y="330" width="118" height="96" rx="20" fill="#171F19" stroke="#F7C85B" stroke-opacity=".32"/>
    <text x="915" y="376" text-anchor="middle" fill="#FFE7A0" font-family="Arial, sans-serif" font-weight="900" font-size="26">FX</text>
    <text x="915" y="405" text-anchor="middle" fill="#B8B2A2" font-family="Arial, sans-serif" font-weight="800" font-size="15">Forex</text>
  </g>
  <path d="M560 482H996" stroke="#F7C85B" stroke-opacity=".24" stroke-width="2"/>
  <circle cx="560" cy="482" r="8" fill="#F7C85B"/>
  <circle cx="702" cy="482" r="8" fill="#F7C85B"/>
  <circle cx="844" cy="482" r="8" fill="#F7C85B"/>
  <circle cx="996" cy="482" r="8" fill="#B9FF66"/>
  <text x="560" y="522" fill="#FFF7DF" font-family="Arial, sans-serif" font-weight="800" font-size="18">Learn</text>
  <text x="688" y="522" fill="#FFF7DF" font-family="Arial, sans-serif" font-weight="800" font-size="18">Practice</text>
  <text x="814" y="522" fill="#FFF7DF" font-family="Arial, sans-serif" font-weight="800" font-size="18">Risk</text>
  <text x="950" y="522" fill="#FFF7DF" font-family="Arial, sans-serif" font-weight="800" font-size="18">Clarity</text>
  <defs>
    <linearGradient id="gold" x1="122" y1="112" x2="200" y2="190" gradientUnits="userSpaceOnUse">
      <stop stop-color="#FFE7A0"/>
      <stop offset="1" stop-color="#F7C85B"/>
    </linearGradient>
  </defs>
</svg>
